M48
;GenerationSoftware,Autodesk,EAGLE,9.6.2*%
;CreationDate,2021-04-21T18:30:36Z*%
FMAT,2
ICI,OFF
METRIC,TZ,000.000
T7C0.350
T6C0.600
T5C0.650
T4C1.016
T3C1.829
T2C2.200
T1C2.500
%
G90
M71
T1
X87000Y9000
X87000Y87000
X9000Y87000
X9000Y9000
T2
X2000Y48000
T3
X70850Y25970
X77598Y23430
X70850Y20890
X25630Y20910
X18882Y23450
X25630Y25990
T4
X19000Y90900
X21540Y90900
X24080Y90900
X26620Y90900
X29160Y90900
X31700Y90900
X35040Y43540
X32500Y43540
T5
X92920Y50890
X92920Y45110
T6
X92420Y43680
X92420Y52320
X96600Y43680
X96600Y52320
T7
X74300Y57350
X89000Y45600
X89000Y50400
X95000Y54300
X32600Y82000
X33475Y83525
X51200Y76700
X43300Y75100
X32200Y67200
X27500Y65300
X17100Y86000
X68200Y78692
X57700Y86770
X73700Y71800
X67000Y71800
X10900Y80600
X55300Y40200
X54800Y44400
X84300Y50600
X92600Y56000
X20100Y86600
X60200Y46500
X23900Y83700
X23900Y86300
X60550Y85400
X33550Y85500
X30800Y76700
X27700Y76700
X33600Y63300
X31900Y63300
X72990Y68800
X50800Y42700
X49600Y42700
X50800Y44900
X49600Y44900
X42800Y48200
X78800Y63900
X76700Y63900
X36800Y64100
X36700Y67400
X19100Y72700
X19100Y75100
X69500Y76900
X66900Y76900
X68200Y74900
M30