G04 EAGLE Gerber RS-274X export*
G75*
%MOMM*%
%FSLAX34Y34*%
%LPD*%
%INtCream*%
%IPPOS*%
%AMOC8*
5,1,8,0,0,1.08239X$1,22.5*%
G01*
%ADD10C,0.076200*%
%ADD11C,0.152400*%
%ADD12C,0.000000*%
%ADD13R,1.100000X1.000000*%
%ADD14R,1.500000X0.900000*%


D10*
X0Y240000D02*
X70Y234201D01*
X280Y228405D01*
X630Y222616D01*
X1120Y216837D01*
X1750Y211071D01*
X2518Y205323D01*
X3426Y199594D01*
X4471Y193890D01*
X5654Y188212D01*
X6974Y182564D01*
X8430Y176950D01*
X10021Y171373D01*
X11746Y165836D01*
X13605Y160342D01*
X15596Y154895D01*
X17718Y149497D01*
X19970Y144152D01*
X22350Y138864D01*
X24858Y133634D01*
X27491Y128466D01*
X30248Y123364D01*
X33127Y118330D01*
X36128Y113366D01*
X39247Y108477D01*
X42484Y103664D01*
X45836Y98932D01*
X49301Y94281D01*
X52878Y89716D01*
X56564Y85238D01*
X60357Y80851D01*
X64256Y76556D01*
X68256Y72357D01*
X72357Y68256D01*
X76556Y64256D01*
X80851Y60357D01*
X85238Y56564D01*
X89716Y52878D01*
X94281Y49301D01*
X98932Y45836D01*
X103664Y42484D01*
X108477Y39247D01*
X113366Y36128D01*
X118330Y33127D01*
X123364Y30248D01*
X128466Y27491D01*
X133634Y24858D01*
X138864Y22350D01*
X144152Y19970D01*
X149497Y17718D01*
X154895Y15596D01*
X160342Y13605D01*
X165836Y11746D01*
X171373Y10021D01*
X176950Y8430D01*
X182564Y6974D01*
X188212Y5654D01*
X193890Y4471D01*
X199594Y3426D01*
X205323Y2518D01*
X211071Y1750D01*
X216837Y1120D01*
X222616Y630D01*
X228405Y280D01*
X234201Y70D01*
X240000Y0D01*
X0Y720000D02*
X70Y725799D01*
X280Y731595D01*
X630Y737384D01*
X1120Y743163D01*
X1750Y748929D01*
X2518Y754677D01*
X3426Y760406D01*
X4471Y766110D01*
X5654Y771788D01*
X6974Y777436D01*
X8430Y783050D01*
X10021Y788627D01*
X11746Y794164D01*
X13605Y799658D01*
X15596Y805105D01*
X17718Y810503D01*
X19970Y815848D01*
X22350Y821136D01*
X24858Y826366D01*
X27491Y831534D01*
X30248Y836636D01*
X33127Y841670D01*
X36128Y846634D01*
X39247Y851523D01*
X42484Y856336D01*
X45836Y861068D01*
X49301Y865719D01*
X52878Y870284D01*
X56564Y874762D01*
X60357Y879149D01*
X64256Y883444D01*
X68256Y887643D01*
X72357Y891744D01*
X76556Y895744D01*
X80851Y899643D01*
X85238Y903436D01*
X89716Y907122D01*
X94281Y910699D01*
X98932Y914164D01*
X103664Y917516D01*
X108477Y920753D01*
X113366Y923872D01*
X118330Y926873D01*
X123364Y929752D01*
X128466Y932509D01*
X133634Y935142D01*
X138864Y937650D01*
X144152Y940030D01*
X149497Y942282D01*
X154895Y944404D01*
X160342Y946395D01*
X165836Y948254D01*
X171373Y949979D01*
X176950Y951570D01*
X182564Y953026D01*
X188212Y954346D01*
X193890Y955529D01*
X199594Y956574D01*
X205323Y957482D01*
X211071Y958250D01*
X216837Y958880D01*
X222616Y959370D01*
X228405Y959720D01*
X234201Y959930D01*
X240000Y960000D01*
X720000Y960000D02*
X725799Y959930D01*
X731595Y959720D01*
X737384Y959370D01*
X743163Y958880D01*
X748929Y958250D01*
X754677Y957482D01*
X760406Y956574D01*
X766110Y955529D01*
X771788Y954346D01*
X777436Y953026D01*
X783050Y951570D01*
X788627Y949979D01*
X794164Y948254D01*
X799658Y946395D01*
X805105Y944404D01*
X810503Y942282D01*
X815848Y940030D01*
X821136Y937650D01*
X826366Y935142D01*
X831534Y932509D01*
X836636Y929752D01*
X841670Y926873D01*
X846634Y923872D01*
X851523Y920753D01*
X856336Y917516D01*
X861068Y914164D01*
X865719Y910699D01*
X870284Y907122D01*
X874762Y903436D01*
X879149Y899643D01*
X883444Y895744D01*
X887643Y891744D01*
X891744Y887643D01*
X895744Y883444D01*
X899643Y879149D01*
X903436Y874762D01*
X907122Y870284D01*
X910699Y865719D01*
X914164Y861068D01*
X917516Y856336D01*
X920753Y851523D01*
X923872Y846634D01*
X926873Y841670D01*
X929752Y836636D01*
X932509Y831534D01*
X935142Y826366D01*
X937650Y821136D01*
X940030Y815848D01*
X942282Y810503D01*
X944404Y805105D01*
X946395Y799658D01*
X948254Y794164D01*
X949979Y788627D01*
X951570Y783050D01*
X953026Y777436D01*
X954346Y771788D01*
X955529Y766110D01*
X956574Y760406D01*
X957482Y754677D01*
X958250Y748929D01*
X958880Y743163D01*
X959370Y737384D01*
X959720Y731595D01*
X959930Y725799D01*
X960000Y720000D01*
X960000Y240000D02*
X959930Y234201D01*
X959720Y228405D01*
X959370Y222616D01*
X958880Y216837D01*
X958250Y211071D01*
X957482Y205323D01*
X956574Y199594D01*
X955529Y193890D01*
X954346Y188212D01*
X953026Y182564D01*
X951570Y176950D01*
X949979Y171373D01*
X948254Y165836D01*
X946395Y160342D01*
X944404Y154895D01*
X942282Y149497D01*
X940030Y144152D01*
X937650Y138864D01*
X935142Y133634D01*
X932509Y128466D01*
X929752Y123364D01*
X926873Y118330D01*
X923872Y113366D01*
X920753Y108477D01*
X917516Y103664D01*
X914164Y98932D01*
X910699Y94281D01*
X907122Y89716D01*
X903436Y85238D01*
X899643Y80851D01*
X895744Y76556D01*
X891744Y72357D01*
X887643Y68256D01*
X883444Y64256D01*
X879149Y60357D01*
X874762Y56564D01*
X870284Y52878D01*
X865719Y49301D01*
X861068Y45836D01*
X856336Y42484D01*
X851523Y39247D01*
X846634Y36128D01*
X841670Y33127D01*
X836636Y30248D01*
X831534Y27491D01*
X826366Y24858D01*
X821136Y22350D01*
X815848Y19970D01*
X810503Y17718D01*
X805105Y15596D01*
X799658Y13605D01*
X794164Y11746D01*
X788627Y10021D01*
X783050Y8430D01*
X777436Y6974D01*
X771788Y5654D01*
X766110Y4471D01*
X760406Y3426D01*
X754677Y2518D01*
X748929Y1750D01*
X743163Y1120D01*
X737384Y630D01*
X731595Y280D01*
X725799Y70D01*
X720000Y0D01*
D11*
X364000Y462000D02*
X364000Y494000D01*
X312000Y494000D01*
X312000Y462000D01*
X364000Y462000D01*
D10*
X0Y240000D02*
X0Y720000D01*
X240000Y960000D02*
X720000Y960000D01*
X960000Y720000D02*
X960000Y580000D01*
X960000Y380000D02*
X960000Y240000D01*
X720000Y0D02*
X240000Y0D01*
X960000Y580000D02*
X980000Y580000D01*
X980000Y380000D01*
X960000Y380000D01*
D12*
X77500Y90000D02*
X77504Y90307D01*
X77515Y90613D01*
X77534Y90920D01*
X77560Y91225D01*
X77594Y91530D01*
X77635Y91834D01*
X77684Y92137D01*
X77740Y92439D01*
X77804Y92739D01*
X77875Y93037D01*
X77953Y93334D01*
X78038Y93629D01*
X78131Y93921D01*
X78231Y94211D01*
X78338Y94499D01*
X78452Y94784D01*
X78572Y95066D01*
X78700Y95344D01*
X78835Y95620D01*
X78976Y95892D01*
X79124Y96161D01*
X79278Y96426D01*
X79439Y96687D01*
X79607Y96945D01*
X79780Y97198D01*
X79960Y97446D01*
X80146Y97690D01*
X80337Y97930D01*
X80535Y98165D01*
X80738Y98394D01*
X80947Y98619D01*
X81161Y98839D01*
X81381Y99053D01*
X81606Y99262D01*
X81835Y99465D01*
X82070Y99663D01*
X82310Y99854D01*
X82554Y100040D01*
X82802Y100220D01*
X83055Y100393D01*
X83313Y100561D01*
X83574Y100722D01*
X83839Y100876D01*
X84108Y101024D01*
X84380Y101165D01*
X84656Y101300D01*
X84934Y101428D01*
X85216Y101548D01*
X85501Y101662D01*
X85789Y101769D01*
X86079Y101869D01*
X86371Y101962D01*
X86666Y102047D01*
X86963Y102125D01*
X87261Y102196D01*
X87561Y102260D01*
X87863Y102316D01*
X88166Y102365D01*
X88470Y102406D01*
X88775Y102440D01*
X89080Y102466D01*
X89387Y102485D01*
X89693Y102496D01*
X90000Y102500D01*
X90307Y102496D01*
X90613Y102485D01*
X90920Y102466D01*
X91225Y102440D01*
X91530Y102406D01*
X91834Y102365D01*
X92137Y102316D01*
X92439Y102260D01*
X92739Y102196D01*
X93037Y102125D01*
X93334Y102047D01*
X93629Y101962D01*
X93921Y101869D01*
X94211Y101769D01*
X94499Y101662D01*
X94784Y101548D01*
X95066Y101428D01*
X95344Y101300D01*
X95620Y101165D01*
X95892Y101024D01*
X96161Y100876D01*
X96426Y100722D01*
X96687Y100561D01*
X96945Y100393D01*
X97198Y100220D01*
X97446Y100040D01*
X97690Y99854D01*
X97930Y99663D01*
X98165Y99465D01*
X98394Y99262D01*
X98619Y99053D01*
X98839Y98839D01*
X99053Y98619D01*
X99262Y98394D01*
X99465Y98165D01*
X99663Y97930D01*
X99854Y97690D01*
X100040Y97446D01*
X100220Y97198D01*
X100393Y96945D01*
X100561Y96687D01*
X100722Y96426D01*
X100876Y96161D01*
X101024Y95892D01*
X101165Y95620D01*
X101300Y95344D01*
X101428Y95066D01*
X101548Y94784D01*
X101662Y94499D01*
X101769Y94211D01*
X101869Y93921D01*
X101962Y93629D01*
X102047Y93334D01*
X102125Y93037D01*
X102196Y92739D01*
X102260Y92439D01*
X102316Y92137D01*
X102365Y91834D01*
X102406Y91530D01*
X102440Y91225D01*
X102466Y90920D01*
X102485Y90613D01*
X102496Y90307D01*
X102500Y90000D01*
X102496Y89693D01*
X102485Y89387D01*
X102466Y89080D01*
X102440Y88775D01*
X102406Y88470D01*
X102365Y88166D01*
X102316Y87863D01*
X102260Y87561D01*
X102196Y87261D01*
X102125Y86963D01*
X102047Y86666D01*
X101962Y86371D01*
X101869Y86079D01*
X101769Y85789D01*
X101662Y85501D01*
X101548Y85216D01*
X101428Y84934D01*
X101300Y84656D01*
X101165Y84380D01*
X101024Y84108D01*
X100876Y83839D01*
X100722Y83574D01*
X100561Y83313D01*
X100393Y83055D01*
X100220Y82802D01*
X100040Y82554D01*
X99854Y82310D01*
X99663Y82070D01*
X99465Y81835D01*
X99262Y81606D01*
X99053Y81381D01*
X98839Y81161D01*
X98619Y80947D01*
X98394Y80738D01*
X98165Y80535D01*
X97930Y80337D01*
X97690Y80146D01*
X97446Y79960D01*
X97198Y79780D01*
X96945Y79607D01*
X96687Y79439D01*
X96426Y79278D01*
X96161Y79124D01*
X95892Y78976D01*
X95620Y78835D01*
X95344Y78700D01*
X95066Y78572D01*
X94784Y78452D01*
X94499Y78338D01*
X94211Y78231D01*
X93921Y78131D01*
X93629Y78038D01*
X93334Y77953D01*
X93037Y77875D01*
X92739Y77804D01*
X92439Y77740D01*
X92137Y77684D01*
X91834Y77635D01*
X91530Y77594D01*
X91225Y77560D01*
X90920Y77534D01*
X90613Y77515D01*
X90307Y77504D01*
X90000Y77500D01*
X89693Y77504D01*
X89387Y77515D01*
X89080Y77534D01*
X88775Y77560D01*
X88470Y77594D01*
X88166Y77635D01*
X87863Y77684D01*
X87561Y77740D01*
X87261Y77804D01*
X86963Y77875D01*
X86666Y77953D01*
X86371Y78038D01*
X86079Y78131D01*
X85789Y78231D01*
X85501Y78338D01*
X85216Y78452D01*
X84934Y78572D01*
X84656Y78700D01*
X84380Y78835D01*
X84108Y78976D01*
X83839Y79124D01*
X83574Y79278D01*
X83313Y79439D01*
X83055Y79607D01*
X82802Y79780D01*
X82554Y79960D01*
X82310Y80146D01*
X82070Y80337D01*
X81835Y80535D01*
X81606Y80738D01*
X81381Y80947D01*
X81161Y81161D01*
X80947Y81381D01*
X80738Y81606D01*
X80535Y81835D01*
X80337Y82070D01*
X80146Y82310D01*
X79960Y82554D01*
X79780Y82802D01*
X79607Y83055D01*
X79439Y83313D01*
X79278Y83574D01*
X79124Y83839D01*
X78976Y84108D01*
X78835Y84380D01*
X78700Y84656D01*
X78572Y84934D01*
X78452Y85216D01*
X78338Y85501D01*
X78231Y85789D01*
X78131Y86079D01*
X78038Y86371D01*
X77953Y86666D01*
X77875Y86963D01*
X77804Y87261D01*
X77740Y87561D01*
X77684Y87863D01*
X77635Y88166D01*
X77594Y88470D01*
X77560Y88775D01*
X77534Y89080D01*
X77515Y89387D01*
X77504Y89693D01*
X77500Y90000D01*
X77500Y870000D02*
X77504Y870307D01*
X77515Y870613D01*
X77534Y870920D01*
X77560Y871225D01*
X77594Y871530D01*
X77635Y871834D01*
X77684Y872137D01*
X77740Y872439D01*
X77804Y872739D01*
X77875Y873037D01*
X77953Y873334D01*
X78038Y873629D01*
X78131Y873921D01*
X78231Y874211D01*
X78338Y874499D01*
X78452Y874784D01*
X78572Y875066D01*
X78700Y875344D01*
X78835Y875620D01*
X78976Y875892D01*
X79124Y876161D01*
X79278Y876426D01*
X79439Y876687D01*
X79607Y876945D01*
X79780Y877198D01*
X79960Y877446D01*
X80146Y877690D01*
X80337Y877930D01*
X80535Y878165D01*
X80738Y878394D01*
X80947Y878619D01*
X81161Y878839D01*
X81381Y879053D01*
X81606Y879262D01*
X81835Y879465D01*
X82070Y879663D01*
X82310Y879854D01*
X82554Y880040D01*
X82802Y880220D01*
X83055Y880393D01*
X83313Y880561D01*
X83574Y880722D01*
X83839Y880876D01*
X84108Y881024D01*
X84380Y881165D01*
X84656Y881300D01*
X84934Y881428D01*
X85216Y881548D01*
X85501Y881662D01*
X85789Y881769D01*
X86079Y881869D01*
X86371Y881962D01*
X86666Y882047D01*
X86963Y882125D01*
X87261Y882196D01*
X87561Y882260D01*
X87863Y882316D01*
X88166Y882365D01*
X88470Y882406D01*
X88775Y882440D01*
X89080Y882466D01*
X89387Y882485D01*
X89693Y882496D01*
X90000Y882500D01*
X90307Y882496D01*
X90613Y882485D01*
X90920Y882466D01*
X91225Y882440D01*
X91530Y882406D01*
X91834Y882365D01*
X92137Y882316D01*
X92439Y882260D01*
X92739Y882196D01*
X93037Y882125D01*
X93334Y882047D01*
X93629Y881962D01*
X93921Y881869D01*
X94211Y881769D01*
X94499Y881662D01*
X94784Y881548D01*
X95066Y881428D01*
X95344Y881300D01*
X95620Y881165D01*
X95892Y881024D01*
X96161Y880876D01*
X96426Y880722D01*
X96687Y880561D01*
X96945Y880393D01*
X97198Y880220D01*
X97446Y880040D01*
X97690Y879854D01*
X97930Y879663D01*
X98165Y879465D01*
X98394Y879262D01*
X98619Y879053D01*
X98839Y878839D01*
X99053Y878619D01*
X99262Y878394D01*
X99465Y878165D01*
X99663Y877930D01*
X99854Y877690D01*
X100040Y877446D01*
X100220Y877198D01*
X100393Y876945D01*
X100561Y876687D01*
X100722Y876426D01*
X100876Y876161D01*
X101024Y875892D01*
X101165Y875620D01*
X101300Y875344D01*
X101428Y875066D01*
X101548Y874784D01*
X101662Y874499D01*
X101769Y874211D01*
X101869Y873921D01*
X101962Y873629D01*
X102047Y873334D01*
X102125Y873037D01*
X102196Y872739D01*
X102260Y872439D01*
X102316Y872137D01*
X102365Y871834D01*
X102406Y871530D01*
X102440Y871225D01*
X102466Y870920D01*
X102485Y870613D01*
X102496Y870307D01*
X102500Y870000D01*
X102496Y869693D01*
X102485Y869387D01*
X102466Y869080D01*
X102440Y868775D01*
X102406Y868470D01*
X102365Y868166D01*
X102316Y867863D01*
X102260Y867561D01*
X102196Y867261D01*
X102125Y866963D01*
X102047Y866666D01*
X101962Y866371D01*
X101869Y866079D01*
X101769Y865789D01*
X101662Y865501D01*
X101548Y865216D01*
X101428Y864934D01*
X101300Y864656D01*
X101165Y864380D01*
X101024Y864108D01*
X100876Y863839D01*
X100722Y863574D01*
X100561Y863313D01*
X100393Y863055D01*
X100220Y862802D01*
X100040Y862554D01*
X99854Y862310D01*
X99663Y862070D01*
X99465Y861835D01*
X99262Y861606D01*
X99053Y861381D01*
X98839Y861161D01*
X98619Y860947D01*
X98394Y860738D01*
X98165Y860535D01*
X97930Y860337D01*
X97690Y860146D01*
X97446Y859960D01*
X97198Y859780D01*
X96945Y859607D01*
X96687Y859439D01*
X96426Y859278D01*
X96161Y859124D01*
X95892Y858976D01*
X95620Y858835D01*
X95344Y858700D01*
X95066Y858572D01*
X94784Y858452D01*
X94499Y858338D01*
X94211Y858231D01*
X93921Y858131D01*
X93629Y858038D01*
X93334Y857953D01*
X93037Y857875D01*
X92739Y857804D01*
X92439Y857740D01*
X92137Y857684D01*
X91834Y857635D01*
X91530Y857594D01*
X91225Y857560D01*
X90920Y857534D01*
X90613Y857515D01*
X90307Y857504D01*
X90000Y857500D01*
X89693Y857504D01*
X89387Y857515D01*
X89080Y857534D01*
X88775Y857560D01*
X88470Y857594D01*
X88166Y857635D01*
X87863Y857684D01*
X87561Y857740D01*
X87261Y857804D01*
X86963Y857875D01*
X86666Y857953D01*
X86371Y858038D01*
X86079Y858131D01*
X85789Y858231D01*
X85501Y858338D01*
X85216Y858452D01*
X84934Y858572D01*
X84656Y858700D01*
X84380Y858835D01*
X84108Y858976D01*
X83839Y859124D01*
X83574Y859278D01*
X83313Y859439D01*
X83055Y859607D01*
X82802Y859780D01*
X82554Y859960D01*
X82310Y860146D01*
X82070Y860337D01*
X81835Y860535D01*
X81606Y860738D01*
X81381Y860947D01*
X81161Y861161D01*
X80947Y861381D01*
X80738Y861606D01*
X80535Y861835D01*
X80337Y862070D01*
X80146Y862310D01*
X79960Y862554D01*
X79780Y862802D01*
X79607Y863055D01*
X79439Y863313D01*
X79278Y863574D01*
X79124Y863839D01*
X78976Y864108D01*
X78835Y864380D01*
X78700Y864656D01*
X78572Y864934D01*
X78452Y865216D01*
X78338Y865501D01*
X78231Y865789D01*
X78131Y866079D01*
X78038Y866371D01*
X77953Y866666D01*
X77875Y866963D01*
X77804Y867261D01*
X77740Y867561D01*
X77684Y867863D01*
X77635Y868166D01*
X77594Y868470D01*
X77560Y868775D01*
X77534Y869080D01*
X77515Y869387D01*
X77504Y869693D01*
X77500Y870000D01*
X857500Y870000D02*
X857504Y870307D01*
X857515Y870613D01*
X857534Y870920D01*
X857560Y871225D01*
X857594Y871530D01*
X857635Y871834D01*
X857684Y872137D01*
X857740Y872439D01*
X857804Y872739D01*
X857875Y873037D01*
X857953Y873334D01*
X858038Y873629D01*
X858131Y873921D01*
X858231Y874211D01*
X858338Y874499D01*
X858452Y874784D01*
X858572Y875066D01*
X858700Y875344D01*
X858835Y875620D01*
X858976Y875892D01*
X859124Y876161D01*
X859278Y876426D01*
X859439Y876687D01*
X859607Y876945D01*
X859780Y877198D01*
X859960Y877446D01*
X860146Y877690D01*
X860337Y877930D01*
X860535Y878165D01*
X860738Y878394D01*
X860947Y878619D01*
X861161Y878839D01*
X861381Y879053D01*
X861606Y879262D01*
X861835Y879465D01*
X862070Y879663D01*
X862310Y879854D01*
X862554Y880040D01*
X862802Y880220D01*
X863055Y880393D01*
X863313Y880561D01*
X863574Y880722D01*
X863839Y880876D01*
X864108Y881024D01*
X864380Y881165D01*
X864656Y881300D01*
X864934Y881428D01*
X865216Y881548D01*
X865501Y881662D01*
X865789Y881769D01*
X866079Y881869D01*
X866371Y881962D01*
X866666Y882047D01*
X866963Y882125D01*
X867261Y882196D01*
X867561Y882260D01*
X867863Y882316D01*
X868166Y882365D01*
X868470Y882406D01*
X868775Y882440D01*
X869080Y882466D01*
X869387Y882485D01*
X869693Y882496D01*
X870000Y882500D01*
X870307Y882496D01*
X870613Y882485D01*
X870920Y882466D01*
X871225Y882440D01*
X871530Y882406D01*
X871834Y882365D01*
X872137Y882316D01*
X872439Y882260D01*
X872739Y882196D01*
X873037Y882125D01*
X873334Y882047D01*
X873629Y881962D01*
X873921Y881869D01*
X874211Y881769D01*
X874499Y881662D01*
X874784Y881548D01*
X875066Y881428D01*
X875344Y881300D01*
X875620Y881165D01*
X875892Y881024D01*
X876161Y880876D01*
X876426Y880722D01*
X876687Y880561D01*
X876945Y880393D01*
X877198Y880220D01*
X877446Y880040D01*
X877690Y879854D01*
X877930Y879663D01*
X878165Y879465D01*
X878394Y879262D01*
X878619Y879053D01*
X878839Y878839D01*
X879053Y878619D01*
X879262Y878394D01*
X879465Y878165D01*
X879663Y877930D01*
X879854Y877690D01*
X880040Y877446D01*
X880220Y877198D01*
X880393Y876945D01*
X880561Y876687D01*
X880722Y876426D01*
X880876Y876161D01*
X881024Y875892D01*
X881165Y875620D01*
X881300Y875344D01*
X881428Y875066D01*
X881548Y874784D01*
X881662Y874499D01*
X881769Y874211D01*
X881869Y873921D01*
X881962Y873629D01*
X882047Y873334D01*
X882125Y873037D01*
X882196Y872739D01*
X882260Y872439D01*
X882316Y872137D01*
X882365Y871834D01*
X882406Y871530D01*
X882440Y871225D01*
X882466Y870920D01*
X882485Y870613D01*
X882496Y870307D01*
X882500Y870000D01*
X882496Y869693D01*
X882485Y869387D01*
X882466Y869080D01*
X882440Y868775D01*
X882406Y868470D01*
X882365Y868166D01*
X882316Y867863D01*
X882260Y867561D01*
X882196Y867261D01*
X882125Y866963D01*
X882047Y866666D01*
X881962Y866371D01*
X881869Y866079D01*
X881769Y865789D01*
X881662Y865501D01*
X881548Y865216D01*
X881428Y864934D01*
X881300Y864656D01*
X881165Y864380D01*
X881024Y864108D01*
X880876Y863839D01*
X880722Y863574D01*
X880561Y863313D01*
X880393Y863055D01*
X880220Y862802D01*
X880040Y862554D01*
X879854Y862310D01*
X879663Y862070D01*
X879465Y861835D01*
X879262Y861606D01*
X879053Y861381D01*
X878839Y861161D01*
X878619Y860947D01*
X878394Y860738D01*
X878165Y860535D01*
X877930Y860337D01*
X877690Y860146D01*
X877446Y859960D01*
X877198Y859780D01*
X876945Y859607D01*
X876687Y859439D01*
X876426Y859278D01*
X876161Y859124D01*
X875892Y858976D01*
X875620Y858835D01*
X875344Y858700D01*
X875066Y858572D01*
X874784Y858452D01*
X874499Y858338D01*
X874211Y858231D01*
X873921Y858131D01*
X873629Y858038D01*
X873334Y857953D01*
X873037Y857875D01*
X872739Y857804D01*
X872439Y857740D01*
X872137Y857684D01*
X871834Y857635D01*
X871530Y857594D01*
X871225Y857560D01*
X870920Y857534D01*
X870613Y857515D01*
X870307Y857504D01*
X870000Y857500D01*
X869693Y857504D01*
X869387Y857515D01*
X869080Y857534D01*
X868775Y857560D01*
X868470Y857594D01*
X868166Y857635D01*
X867863Y857684D01*
X867561Y857740D01*
X867261Y857804D01*
X866963Y857875D01*
X866666Y857953D01*
X866371Y858038D01*
X866079Y858131D01*
X865789Y858231D01*
X865501Y858338D01*
X865216Y858452D01*
X864934Y858572D01*
X864656Y858700D01*
X864380Y858835D01*
X864108Y858976D01*
X863839Y859124D01*
X863574Y859278D01*
X863313Y859439D01*
X863055Y859607D01*
X862802Y859780D01*
X862554Y859960D01*
X862310Y860146D01*
X862070Y860337D01*
X861835Y860535D01*
X861606Y860738D01*
X861381Y860947D01*
X861161Y861161D01*
X860947Y861381D01*
X860738Y861606D01*
X860535Y861835D01*
X860337Y862070D01*
X860146Y862310D01*
X859960Y862554D01*
X859780Y862802D01*
X859607Y863055D01*
X859439Y863313D01*
X859278Y863574D01*
X859124Y863839D01*
X858976Y864108D01*
X858835Y864380D01*
X858700Y864656D01*
X858572Y864934D01*
X858452Y865216D01*
X858338Y865501D01*
X858231Y865789D01*
X858131Y866079D01*
X858038Y866371D01*
X857953Y866666D01*
X857875Y866963D01*
X857804Y867261D01*
X857740Y867561D01*
X857684Y867863D01*
X857635Y868166D01*
X857594Y868470D01*
X857560Y868775D01*
X857534Y869080D01*
X857515Y869387D01*
X857504Y869693D01*
X857500Y870000D01*
X857500Y90000D02*
X857504Y90307D01*
X857515Y90613D01*
X857534Y90920D01*
X857560Y91225D01*
X857594Y91530D01*
X857635Y91834D01*
X857684Y92137D01*
X857740Y92439D01*
X857804Y92739D01*
X857875Y93037D01*
X857953Y93334D01*
X858038Y93629D01*
X858131Y93921D01*
X858231Y94211D01*
X858338Y94499D01*
X858452Y94784D01*
X858572Y95066D01*
X858700Y95344D01*
X858835Y95620D01*
X858976Y95892D01*
X859124Y96161D01*
X859278Y96426D01*
X859439Y96687D01*
X859607Y96945D01*
X859780Y97198D01*
X859960Y97446D01*
X860146Y97690D01*
X860337Y97930D01*
X860535Y98165D01*
X860738Y98394D01*
X860947Y98619D01*
X861161Y98839D01*
X861381Y99053D01*
X861606Y99262D01*
X861835Y99465D01*
X862070Y99663D01*
X862310Y99854D01*
X862554Y100040D01*
X862802Y100220D01*
X863055Y100393D01*
X863313Y100561D01*
X863574Y100722D01*
X863839Y100876D01*
X864108Y101024D01*
X864380Y101165D01*
X864656Y101300D01*
X864934Y101428D01*
X865216Y101548D01*
X865501Y101662D01*
X865789Y101769D01*
X866079Y101869D01*
X866371Y101962D01*
X866666Y102047D01*
X866963Y102125D01*
X867261Y102196D01*
X867561Y102260D01*
X867863Y102316D01*
X868166Y102365D01*
X868470Y102406D01*
X868775Y102440D01*
X869080Y102466D01*
X869387Y102485D01*
X869693Y102496D01*
X870000Y102500D01*
X870307Y102496D01*
X870613Y102485D01*
X870920Y102466D01*
X871225Y102440D01*
X871530Y102406D01*
X871834Y102365D01*
X872137Y102316D01*
X872439Y102260D01*
X872739Y102196D01*
X873037Y102125D01*
X873334Y102047D01*
X873629Y101962D01*
X873921Y101869D01*
X874211Y101769D01*
X874499Y101662D01*
X874784Y101548D01*
X875066Y101428D01*
X875344Y101300D01*
X875620Y101165D01*
X875892Y101024D01*
X876161Y100876D01*
X876426Y100722D01*
X876687Y100561D01*
X876945Y100393D01*
X877198Y100220D01*
X877446Y100040D01*
X877690Y99854D01*
X877930Y99663D01*
X878165Y99465D01*
X878394Y99262D01*
X878619Y99053D01*
X878839Y98839D01*
X879053Y98619D01*
X879262Y98394D01*
X879465Y98165D01*
X879663Y97930D01*
X879854Y97690D01*
X880040Y97446D01*
X880220Y97198D01*
X880393Y96945D01*
X880561Y96687D01*
X880722Y96426D01*
X880876Y96161D01*
X881024Y95892D01*
X881165Y95620D01*
X881300Y95344D01*
X881428Y95066D01*
X881548Y94784D01*
X881662Y94499D01*
X881769Y94211D01*
X881869Y93921D01*
X881962Y93629D01*
X882047Y93334D01*
X882125Y93037D01*
X882196Y92739D01*
X882260Y92439D01*
X882316Y92137D01*
X882365Y91834D01*
X882406Y91530D01*
X882440Y91225D01*
X882466Y90920D01*
X882485Y90613D01*
X882496Y90307D01*
X882500Y90000D01*
X882496Y89693D01*
X882485Y89387D01*
X882466Y89080D01*
X882440Y88775D01*
X882406Y88470D01*
X882365Y88166D01*
X882316Y87863D01*
X882260Y87561D01*
X882196Y87261D01*
X882125Y86963D01*
X882047Y86666D01*
X881962Y86371D01*
X881869Y86079D01*
X881769Y85789D01*
X881662Y85501D01*
X881548Y85216D01*
X881428Y84934D01*
X881300Y84656D01*
X881165Y84380D01*
X881024Y84108D01*
X880876Y83839D01*
X880722Y83574D01*
X880561Y83313D01*
X880393Y83055D01*
X880220Y82802D01*
X880040Y82554D01*
X879854Y82310D01*
X879663Y82070D01*
X879465Y81835D01*
X879262Y81606D01*
X879053Y81381D01*
X878839Y81161D01*
X878619Y80947D01*
X878394Y80738D01*
X878165Y80535D01*
X877930Y80337D01*
X877690Y80146D01*
X877446Y79960D01*
X877198Y79780D01*
X876945Y79607D01*
X876687Y79439D01*
X876426Y79278D01*
X876161Y79124D01*
X875892Y78976D01*
X875620Y78835D01*
X875344Y78700D01*
X875066Y78572D01*
X874784Y78452D01*
X874499Y78338D01*
X874211Y78231D01*
X873921Y78131D01*
X873629Y78038D01*
X873334Y77953D01*
X873037Y77875D01*
X872739Y77804D01*
X872439Y77740D01*
X872137Y77684D01*
X871834Y77635D01*
X871530Y77594D01*
X871225Y77560D01*
X870920Y77534D01*
X870613Y77515D01*
X870307Y77504D01*
X870000Y77500D01*
X869693Y77504D01*
X869387Y77515D01*
X869080Y77534D01*
X868775Y77560D01*
X868470Y77594D01*
X868166Y77635D01*
X867863Y77684D01*
X867561Y77740D01*
X867261Y77804D01*
X866963Y77875D01*
X866666Y77953D01*
X866371Y78038D01*
X866079Y78131D01*
X865789Y78231D01*
X865501Y78338D01*
X865216Y78452D01*
X864934Y78572D01*
X864656Y78700D01*
X864380Y78835D01*
X864108Y78976D01*
X863839Y79124D01*
X863574Y79278D01*
X863313Y79439D01*
X863055Y79607D01*
X862802Y79780D01*
X862554Y79960D01*
X862310Y80146D01*
X862070Y80337D01*
X861835Y80535D01*
X861606Y80738D01*
X861381Y80947D01*
X861161Y81161D01*
X860947Y81381D01*
X860738Y81606D01*
X860535Y81835D01*
X860337Y82070D01*
X860146Y82310D01*
X859960Y82554D01*
X859780Y82802D01*
X859607Y83055D01*
X859439Y83313D01*
X859278Y83574D01*
X859124Y83839D01*
X858976Y84108D01*
X858835Y84380D01*
X858700Y84656D01*
X858572Y84934D01*
X858452Y85216D01*
X858338Y85501D01*
X858231Y85789D01*
X858131Y86079D01*
X858038Y86371D01*
X857953Y86666D01*
X857875Y86963D01*
X857804Y87261D01*
X857740Y87561D01*
X857684Y87863D01*
X857635Y88166D01*
X857594Y88470D01*
X857560Y88775D01*
X857534Y89080D01*
X857515Y89387D01*
X857504Y89693D01*
X857500Y90000D01*
X9000Y480000D02*
X9003Y480270D01*
X9013Y480540D01*
X9030Y480809D01*
X9053Y481078D01*
X9083Y481347D01*
X9119Y481614D01*
X9162Y481881D01*
X9211Y482146D01*
X9267Y482410D01*
X9330Y482673D01*
X9398Y482934D01*
X9474Y483193D01*
X9555Y483450D01*
X9643Y483706D01*
X9737Y483959D01*
X9837Y484210D01*
X9944Y484458D01*
X10056Y484703D01*
X10175Y484946D01*
X10299Y485185D01*
X10429Y485422D01*
X10565Y485655D01*
X10707Y485885D01*
X10854Y486111D01*
X11007Y486334D01*
X11165Y486553D01*
X11328Y486768D01*
X11497Y486978D01*
X11671Y487185D01*
X11850Y487387D01*
X12033Y487585D01*
X12222Y487778D01*
X12415Y487967D01*
X12613Y488150D01*
X12815Y488329D01*
X13022Y488503D01*
X13232Y488672D01*
X13447Y488835D01*
X13666Y488993D01*
X13889Y489146D01*
X14115Y489293D01*
X14345Y489435D01*
X14578Y489571D01*
X14815Y489701D01*
X15054Y489825D01*
X15297Y489944D01*
X15542Y490056D01*
X15790Y490163D01*
X16041Y490263D01*
X16294Y490357D01*
X16550Y490445D01*
X16807Y490526D01*
X17066Y490602D01*
X17327Y490670D01*
X17590Y490733D01*
X17854Y490789D01*
X18119Y490838D01*
X18386Y490881D01*
X18653Y490917D01*
X18922Y490947D01*
X19191Y490970D01*
X19460Y490987D01*
X19730Y490997D01*
X20000Y491000D01*
X20270Y490997D01*
X20540Y490987D01*
X20809Y490970D01*
X21078Y490947D01*
X21347Y490917D01*
X21614Y490881D01*
X21881Y490838D01*
X22146Y490789D01*
X22410Y490733D01*
X22673Y490670D01*
X22934Y490602D01*
X23193Y490526D01*
X23450Y490445D01*
X23706Y490357D01*
X23959Y490263D01*
X24210Y490163D01*
X24458Y490056D01*
X24703Y489944D01*
X24946Y489825D01*
X25185Y489701D01*
X25422Y489571D01*
X25655Y489435D01*
X25885Y489293D01*
X26111Y489146D01*
X26334Y488993D01*
X26553Y488835D01*
X26768Y488672D01*
X26978Y488503D01*
X27185Y488329D01*
X27387Y488150D01*
X27585Y487967D01*
X27778Y487778D01*
X27967Y487585D01*
X28150Y487387D01*
X28329Y487185D01*
X28503Y486978D01*
X28672Y486768D01*
X28835Y486553D01*
X28993Y486334D01*
X29146Y486111D01*
X29293Y485885D01*
X29435Y485655D01*
X29571Y485422D01*
X29701Y485185D01*
X29825Y484946D01*
X29944Y484703D01*
X30056Y484458D01*
X30163Y484210D01*
X30263Y483959D01*
X30357Y483706D01*
X30445Y483450D01*
X30526Y483193D01*
X30602Y482934D01*
X30670Y482673D01*
X30733Y482410D01*
X30789Y482146D01*
X30838Y481881D01*
X30881Y481614D01*
X30917Y481347D01*
X30947Y481078D01*
X30970Y480809D01*
X30987Y480540D01*
X30997Y480270D01*
X31000Y480000D01*
X30997Y479730D01*
X30987Y479460D01*
X30970Y479191D01*
X30947Y478922D01*
X30917Y478653D01*
X30881Y478386D01*
X30838Y478119D01*
X30789Y477854D01*
X30733Y477590D01*
X30670Y477327D01*
X30602Y477066D01*
X30526Y476807D01*
X30445Y476550D01*
X30357Y476294D01*
X30263Y476041D01*
X30163Y475790D01*
X30056Y475542D01*
X29944Y475297D01*
X29825Y475054D01*
X29701Y474815D01*
X29571Y474578D01*
X29435Y474345D01*
X29293Y474115D01*
X29146Y473889D01*
X28993Y473666D01*
X28835Y473447D01*
X28672Y473232D01*
X28503Y473022D01*
X28329Y472815D01*
X28150Y472613D01*
X27967Y472415D01*
X27778Y472222D01*
X27585Y472033D01*
X27387Y471850D01*
X27185Y471671D01*
X26978Y471497D01*
X26768Y471328D01*
X26553Y471165D01*
X26334Y471007D01*
X26111Y470854D01*
X25885Y470707D01*
X25655Y470565D01*
X25422Y470429D01*
X25185Y470299D01*
X24946Y470175D01*
X24703Y470056D01*
X24458Y469944D01*
X24210Y469837D01*
X23959Y469737D01*
X23706Y469643D01*
X23450Y469555D01*
X23193Y469474D01*
X22934Y469398D01*
X22673Y469330D01*
X22410Y469267D01*
X22146Y469211D01*
X21881Y469162D01*
X21614Y469119D01*
X21347Y469083D01*
X21078Y469053D01*
X20809Y469030D01*
X20540Y469013D01*
X20270Y469003D01*
X20000Y469000D01*
X19730Y469003D01*
X19460Y469013D01*
X19191Y469030D01*
X18922Y469053D01*
X18653Y469083D01*
X18386Y469119D01*
X18119Y469162D01*
X17854Y469211D01*
X17590Y469267D01*
X17327Y469330D01*
X17066Y469398D01*
X16807Y469474D01*
X16550Y469555D01*
X16294Y469643D01*
X16041Y469737D01*
X15790Y469837D01*
X15542Y469944D01*
X15297Y470056D01*
X15054Y470175D01*
X14815Y470299D01*
X14578Y470429D01*
X14345Y470565D01*
X14115Y470707D01*
X13889Y470854D01*
X13666Y471007D01*
X13447Y471165D01*
X13232Y471328D01*
X13022Y471497D01*
X12815Y471671D01*
X12613Y471850D01*
X12415Y472033D01*
X12222Y472222D01*
X12033Y472415D01*
X11850Y472613D01*
X11671Y472815D01*
X11497Y473022D01*
X11328Y473232D01*
X11165Y473447D01*
X11007Y473666D01*
X10854Y473889D01*
X10707Y474115D01*
X10565Y474345D01*
X10429Y474578D01*
X10299Y474815D01*
X10175Y475054D01*
X10056Y475297D01*
X9944Y475542D01*
X9837Y475790D01*
X9737Y476041D01*
X9643Y476294D01*
X9555Y476550D01*
X9474Y476807D01*
X9398Y477066D01*
X9330Y477327D01*
X9267Y477590D01*
X9211Y477854D01*
X9162Y478119D01*
X9119Y478386D01*
X9083Y478653D01*
X9053Y478922D01*
X9030Y479191D01*
X9013Y479460D01*
X9003Y479730D01*
X9000Y480000D01*
D13*
X158500Y770000D03*
X141500Y770000D03*
X378500Y770000D03*
X361500Y770000D03*
X598500Y770000D03*
X581500Y770000D03*
X818500Y770000D03*
X801500Y770000D03*
X158500Y550000D03*
X141500Y550000D03*
X378500Y550000D03*
X361500Y550000D03*
X598500Y550000D03*
X581500Y550000D03*
X818500Y550000D03*
X801500Y550000D03*
X158500Y330000D03*
X141500Y330000D03*
X378500Y330000D03*
X361500Y330000D03*
X598500Y330000D03*
X581500Y330000D03*
X818500Y330000D03*
X801500Y330000D03*
X158500Y110000D03*
X141500Y110000D03*
X378500Y110000D03*
X361500Y110000D03*
X598500Y110000D03*
X581500Y110000D03*
X818500Y110000D03*
X801500Y110000D03*
D12*
X925950Y451100D02*
X925952Y451213D01*
X925958Y451327D01*
X925968Y451440D01*
X925982Y451552D01*
X925999Y451664D01*
X926021Y451776D01*
X926047Y451886D01*
X926076Y451996D01*
X926109Y452104D01*
X926146Y452212D01*
X926187Y452317D01*
X926231Y452422D01*
X926279Y452525D01*
X926330Y452626D01*
X926385Y452725D01*
X926444Y452822D01*
X926506Y452917D01*
X926571Y453010D01*
X926639Y453101D01*
X926710Y453189D01*
X926785Y453275D01*
X926862Y453358D01*
X926942Y453438D01*
X927025Y453515D01*
X927111Y453590D01*
X927199Y453661D01*
X927290Y453729D01*
X927383Y453794D01*
X927478Y453856D01*
X927575Y453915D01*
X927674Y453970D01*
X927775Y454021D01*
X927878Y454069D01*
X927983Y454113D01*
X928088Y454154D01*
X928196Y454191D01*
X928304Y454224D01*
X928414Y454253D01*
X928524Y454279D01*
X928636Y454301D01*
X928748Y454318D01*
X928860Y454332D01*
X928973Y454342D01*
X929087Y454348D01*
X929200Y454350D01*
X929313Y454348D01*
X929427Y454342D01*
X929540Y454332D01*
X929652Y454318D01*
X929764Y454301D01*
X929876Y454279D01*
X929986Y454253D01*
X930096Y454224D01*
X930204Y454191D01*
X930312Y454154D01*
X930417Y454113D01*
X930522Y454069D01*
X930625Y454021D01*
X930726Y453970D01*
X930825Y453915D01*
X930922Y453856D01*
X931017Y453794D01*
X931110Y453729D01*
X931201Y453661D01*
X931289Y453590D01*
X931375Y453515D01*
X931458Y453438D01*
X931538Y453358D01*
X931615Y453275D01*
X931690Y453189D01*
X931761Y453101D01*
X931829Y453010D01*
X931894Y452917D01*
X931956Y452822D01*
X932015Y452725D01*
X932070Y452626D01*
X932121Y452525D01*
X932169Y452422D01*
X932213Y452317D01*
X932254Y452212D01*
X932291Y452104D01*
X932324Y451996D01*
X932353Y451886D01*
X932379Y451776D01*
X932401Y451664D01*
X932418Y451552D01*
X932432Y451440D01*
X932442Y451327D01*
X932448Y451213D01*
X932450Y451100D01*
X932448Y450987D01*
X932442Y450873D01*
X932432Y450760D01*
X932418Y450648D01*
X932401Y450536D01*
X932379Y450424D01*
X932353Y450314D01*
X932324Y450204D01*
X932291Y450096D01*
X932254Y449988D01*
X932213Y449883D01*
X932169Y449778D01*
X932121Y449675D01*
X932070Y449574D01*
X932015Y449475D01*
X931956Y449378D01*
X931894Y449283D01*
X931829Y449190D01*
X931761Y449099D01*
X931690Y449011D01*
X931615Y448925D01*
X931538Y448842D01*
X931458Y448762D01*
X931375Y448685D01*
X931289Y448610D01*
X931201Y448539D01*
X931110Y448471D01*
X931017Y448406D01*
X930922Y448344D01*
X930825Y448285D01*
X930726Y448230D01*
X930625Y448179D01*
X930522Y448131D01*
X930417Y448087D01*
X930312Y448046D01*
X930204Y448009D01*
X930096Y447976D01*
X929986Y447947D01*
X929876Y447921D01*
X929764Y447899D01*
X929652Y447882D01*
X929540Y447868D01*
X929427Y447858D01*
X929313Y447852D01*
X929200Y447850D01*
X929087Y447852D01*
X928973Y447858D01*
X928860Y447868D01*
X928748Y447882D01*
X928636Y447899D01*
X928524Y447921D01*
X928414Y447947D01*
X928304Y447976D01*
X928196Y448009D01*
X928088Y448046D01*
X927983Y448087D01*
X927878Y448131D01*
X927775Y448179D01*
X927674Y448230D01*
X927575Y448285D01*
X927478Y448344D01*
X927383Y448406D01*
X927290Y448471D01*
X927199Y448539D01*
X927111Y448610D01*
X927025Y448685D01*
X926942Y448762D01*
X926862Y448842D01*
X926785Y448925D01*
X926710Y449011D01*
X926639Y449099D01*
X926571Y449190D01*
X926506Y449283D01*
X926444Y449378D01*
X926385Y449475D01*
X926330Y449574D01*
X926279Y449675D01*
X926231Y449778D01*
X926187Y449883D01*
X926146Y449988D01*
X926109Y450096D01*
X926076Y450204D01*
X926047Y450314D01*
X926021Y450424D01*
X925999Y450536D01*
X925982Y450648D01*
X925968Y450760D01*
X925958Y450873D01*
X925952Y450987D01*
X925950Y451100D01*
X925950Y508900D02*
X925952Y509013D01*
X925958Y509127D01*
X925968Y509240D01*
X925982Y509352D01*
X925999Y509464D01*
X926021Y509576D01*
X926047Y509686D01*
X926076Y509796D01*
X926109Y509904D01*
X926146Y510012D01*
X926187Y510117D01*
X926231Y510222D01*
X926279Y510325D01*
X926330Y510426D01*
X926385Y510525D01*
X926444Y510622D01*
X926506Y510717D01*
X926571Y510810D01*
X926639Y510901D01*
X926710Y510989D01*
X926785Y511075D01*
X926862Y511158D01*
X926942Y511238D01*
X927025Y511315D01*
X927111Y511390D01*
X927199Y511461D01*
X927290Y511529D01*
X927383Y511594D01*
X927478Y511656D01*
X927575Y511715D01*
X927674Y511770D01*
X927775Y511821D01*
X927878Y511869D01*
X927983Y511913D01*
X928088Y511954D01*
X928196Y511991D01*
X928304Y512024D01*
X928414Y512053D01*
X928524Y512079D01*
X928636Y512101D01*
X928748Y512118D01*
X928860Y512132D01*
X928973Y512142D01*
X929087Y512148D01*
X929200Y512150D01*
X929313Y512148D01*
X929427Y512142D01*
X929540Y512132D01*
X929652Y512118D01*
X929764Y512101D01*
X929876Y512079D01*
X929986Y512053D01*
X930096Y512024D01*
X930204Y511991D01*
X930312Y511954D01*
X930417Y511913D01*
X930522Y511869D01*
X930625Y511821D01*
X930726Y511770D01*
X930825Y511715D01*
X930922Y511656D01*
X931017Y511594D01*
X931110Y511529D01*
X931201Y511461D01*
X931289Y511390D01*
X931375Y511315D01*
X931458Y511238D01*
X931538Y511158D01*
X931615Y511075D01*
X931690Y510989D01*
X931761Y510901D01*
X931829Y510810D01*
X931894Y510717D01*
X931956Y510622D01*
X932015Y510525D01*
X932070Y510426D01*
X932121Y510325D01*
X932169Y510222D01*
X932213Y510117D01*
X932254Y510012D01*
X932291Y509904D01*
X932324Y509796D01*
X932353Y509686D01*
X932379Y509576D01*
X932401Y509464D01*
X932418Y509352D01*
X932432Y509240D01*
X932442Y509127D01*
X932448Y509013D01*
X932450Y508900D01*
X932448Y508787D01*
X932442Y508673D01*
X932432Y508560D01*
X932418Y508448D01*
X932401Y508336D01*
X932379Y508224D01*
X932353Y508114D01*
X932324Y508004D01*
X932291Y507896D01*
X932254Y507788D01*
X932213Y507683D01*
X932169Y507578D01*
X932121Y507475D01*
X932070Y507374D01*
X932015Y507275D01*
X931956Y507178D01*
X931894Y507083D01*
X931829Y506990D01*
X931761Y506899D01*
X931690Y506811D01*
X931615Y506725D01*
X931538Y506642D01*
X931458Y506562D01*
X931375Y506485D01*
X931289Y506410D01*
X931201Y506339D01*
X931110Y506271D01*
X931017Y506206D01*
X930922Y506144D01*
X930825Y506085D01*
X930726Y506030D01*
X930625Y505979D01*
X930522Y505931D01*
X930417Y505887D01*
X930312Y505846D01*
X930204Y505809D01*
X930096Y505776D01*
X929986Y505747D01*
X929876Y505721D01*
X929764Y505699D01*
X929652Y505682D01*
X929540Y505668D01*
X929427Y505658D01*
X929313Y505652D01*
X929200Y505650D01*
X929087Y505652D01*
X928973Y505658D01*
X928860Y505668D01*
X928748Y505682D01*
X928636Y505699D01*
X928524Y505721D01*
X928414Y505747D01*
X928304Y505776D01*
X928196Y505809D01*
X928088Y505846D01*
X927983Y505887D01*
X927878Y505931D01*
X927775Y505979D01*
X927674Y506030D01*
X927575Y506085D01*
X927478Y506144D01*
X927383Y506206D01*
X927290Y506271D01*
X927199Y506339D01*
X927111Y506410D01*
X927025Y506485D01*
X926942Y506562D01*
X926862Y506642D01*
X926785Y506725D01*
X926710Y506811D01*
X926639Y506899D01*
X926571Y506990D01*
X926506Y507083D01*
X926444Y507178D01*
X926385Y507275D01*
X926330Y507374D01*
X926279Y507475D01*
X926231Y507578D01*
X926187Y507683D01*
X926146Y507788D01*
X926109Y507896D01*
X926076Y508004D01*
X926047Y508114D01*
X926021Y508224D01*
X925999Y508336D01*
X925982Y508448D01*
X925968Y508560D01*
X925958Y508673D01*
X925952Y508787D01*
X925950Y508900D01*
D14*
X174500Y793500D03*
X174500Y826500D03*
X125500Y793500D03*
X125500Y826500D03*
X394500Y353500D03*
X394500Y386500D03*
X345500Y353500D03*
X345500Y386500D03*
X614500Y353500D03*
X614500Y386500D03*
X565500Y353500D03*
X565500Y386500D03*
X834500Y353500D03*
X834500Y386500D03*
X785500Y353500D03*
X785500Y386500D03*
X174500Y133500D03*
X174500Y166500D03*
X125500Y133500D03*
X125500Y166500D03*
X394500Y133500D03*
X394500Y166500D03*
X345500Y133500D03*
X345500Y166500D03*
X614500Y133500D03*
X614500Y166500D03*
X565500Y133500D03*
X565500Y166500D03*
X834500Y133500D03*
X834500Y166500D03*
X785500Y133500D03*
X785500Y166500D03*
X394500Y793500D03*
X394500Y826500D03*
X345500Y793500D03*
X345500Y826500D03*
X614500Y793500D03*
X614500Y826500D03*
X565500Y793500D03*
X565500Y826500D03*
X834500Y793500D03*
X834500Y826500D03*
X785500Y793500D03*
X785500Y826500D03*
X174500Y573500D03*
X174500Y606500D03*
X125500Y573500D03*
X125500Y606500D03*
X394500Y573500D03*
X394500Y606500D03*
X345500Y573500D03*
X345500Y606500D03*
X614500Y573500D03*
X614500Y606500D03*
X565500Y573500D03*
X565500Y606500D03*
X834500Y573500D03*
X834500Y606500D03*
X785500Y573500D03*
X785500Y606500D03*
X174500Y353500D03*
X174500Y386500D03*
X125500Y353500D03*
X125500Y386500D03*
M02*
